# xmcd
#
# Track frame offsets: 
#        150
#        17407
#        35655
#        65150
#        95732
#        109705
#        131475
#        147160
#        167025
#        186820
#
# Disc length: 2864 seconds
#
# Revision: 5
# Processed by: cddbd v1.5.2PL0 Copyright (c) Steve Scherf et al.
# Submitted via: ExactAudioCopyFreeDBPlugin 1.0
#
DISCID=8a0b2e0a
DTITLE=TERRY EVANS - Come To The River
DYEAR=1997
DGENRE=Blues
TTITLE0=Get Up, Get Ready
TTITLE1=By Babe
TTITLE2=Please No More
TTITLE3=The River
TTITLE4=I Got Loaded
TTITLE5=What You Need
TTITLE6=I Just Want To Make Love To You
TTITLE7=Feeling Alright
TTITLE8=Tears Are Rolling
TTITLE9=Love Is A Precious Thing
EXTD=YEAR: 1997
EXTT0=
EXTT1=
EXTT2=
EXTT3=
EXTT4=
EXTT5=
EXTT6=
EXTT7=
EXTT8=
EXTT9=
PLAYORDER=
